<mxfile host="65bd71144e">
    <diagram id="YDH5gtgfFNlyE-vyJbpZ" name="Page-1">
        <mxGraphModel dx="797" dy="471" grid="1" gridSize="10" guides="1" tooltips="1" connect="1" arrows="1" fold="1" page="1" pageScale="1" pageWidth="850" pageHeight="1100" math="0" shadow="0">
            <root>
                <mxCell id="0"/>
                <mxCell id="1" parent="0"/>
                <mxCell id="2" value="" style="swimlane;childLayout=stackLayout;resizeParent=1;resizeParentMax=0;startSize=20;html=1;" parent="1" vertex="1">
                    <mxGeometry x="10" y="30" width="530" height="680" as="geometry"/>
                </mxCell>
                <mxCell id="3" value="Controller" style="swimlane;startSize=20;html=1;" parent="2" vertex="1">
                    <mxGeometry y="20" width="120" height="660" as="geometry"/>
                </mxCell>
                <mxCell id="10" style="edgeStyle=none;html=1;" parent="3" source="4" target="9" edge="1">
                    <mxGeometry relative="1" as="geometry"/>
                </mxCell>
                <mxCell id="4" value="ophalen detailpagina" style="rounded=0;whiteSpace=wrap;html=1;" parent="3" vertex="1">
                    <mxGeometry x="10" y="40" width="100" height="40" as="geometry"/>
                </mxCell>
                <mxCell id="9" value="HTML" style="rounded=0;whiteSpace=wrap;html=1;" parent="3" vertex="1">
                    <mxGeometry x="9.999999999999545" y="610" width="100" height="40" as="geometry"/>
                </mxCell>
                <mxCell id="5" value="Business Logic" style="swimlane;startSize=20;html=1;" parent="2" vertex="1">
                    <mxGeometry x="120" y="20" width="240" height="660" as="geometry"/>
                </mxCell>
                <mxCell id="91" style="edgeStyle=orthogonalEdgeStyle;html=1;" parent="5" source="11" target="15" edge="1">
                    <mxGeometry relative="1" as="geometry">
                        <Array as="points">
                            <mxPoint x="60" y="130"/>
                        </Array>
                    </mxGeometry>
                </mxCell>
                <mxCell id="92" style="edgeStyle=orthogonalEdgeStyle;html=1;" parent="5" source="11" target="18" edge="1">
                    <mxGeometry relative="1" as="geometry">
                        <Array as="points">
                            <mxPoint x="60" y="190"/>
                        </Array>
                    </mxGeometry>
                </mxCell>
                <mxCell id="93" style="edgeStyle=orthogonalEdgeStyle;html=1;" parent="5" source="11" target="20" edge="1">
                    <mxGeometry relative="1" as="geometry">
                        <Array as="points">
                            <mxPoint x="60" y="240"/>
                        </Array>
                    </mxGeometry>
                </mxCell>
                <mxCell id="94" style="edgeStyle=orthogonalEdgeStyle;html=1;" parent="5" target="21" edge="1">
                    <mxGeometry relative="1" as="geometry">
                        <mxPoint x="60" y="220" as="sourcePoint"/>
                        <Array as="points">
                            <mxPoint x="60" y="430"/>
                        </Array>
                    </mxGeometry>
                </mxCell>
                <mxCell id="95" style="edgeStyle=orthogonalEdgeStyle;html=1;" parent="5" target="19" edge="1">
                    <mxGeometry relative="1" as="geometry">
                        <mxPoint x="60" y="220" as="sourcePoint"/>
                        <Array as="points">
                            <mxPoint x="60" y="480"/>
                        </Array>
                    </mxGeometry>
                </mxCell>
                <mxCell id="96" style="edgeStyle=orthogonalEdgeStyle;html=1;" parent="5" target="22" edge="1">
                    <mxGeometry relative="1" as="geometry">
                        <mxPoint x="60" y="220" as="sourcePoint"/>
                        <Array as="points">
                            <mxPoint x="60" y="530"/>
                        </Array>
                    </mxGeometry>
                </mxCell>
                <mxCell id="97" style="edgeStyle=orthogonalEdgeStyle;html=1;" parent="5" target="23" edge="1">
                    <mxGeometry relative="1" as="geometry">
                        <mxPoint x="60" y="220" as="sourcePoint"/>
                        <Array as="points">
                            <mxPoint x="60" y="580"/>
                        </Array>
                    </mxGeometry>
                </mxCell>
                <mxCell id="107" style="edgeStyle=orthogonalEdgeStyle;html=1;" parent="5" source="11" target="105" edge="1">
                    <mxGeometry relative="1" as="geometry">
                        <Array as="points">
                            <mxPoint x="60" y="300"/>
                        </Array>
                    </mxGeometry>
                </mxCell>
                <mxCell id="108" style="edgeStyle=orthogonalEdgeStyle;html=1;" parent="5" source="11" target="106" edge="1">
                    <mxGeometry relative="1" as="geometry">
                        <Array as="points">
                            <mxPoint x="60" y="355"/>
                        </Array>
                    </mxGeometry>
                </mxCell>
                <mxCell id="11" value="Ophalen Gerecht" style="rounded=0;whiteSpace=wrap;html=1;" parent="5" vertex="1">
                    <mxGeometry x="9.999999999999545" y="40" width="100" height="40" as="geometry"/>
                </mxCell>
                <mxCell id="18" value="Ophalen Type" style="rounded=0;whiteSpace=wrap;html=1;" parent="5" vertex="1">
                    <mxGeometry x="130" y="170" width="100" height="40" as="geometry"/>
                </mxCell>
                <mxCell id="19" value="Ophalen comments" style="rounded=0;whiteSpace=wrap;html=1;" parent="5" vertex="1">
                    <mxGeometry x="130" y="460" width="100" height="40" as="geometry"/>
                </mxCell>
                <mxCell id="20" value="Ophalen ingredienten" style="rounded=0;whiteSpace=wrap;html=1;" parent="5" vertex="1">
                    <mxGeometry x="130" y="220" width="100" height="40" as="geometry"/>
                </mxCell>
                <mxCell id="21" value="Ophalen bereidingswijze" style="rounded=0;whiteSpace=wrap;html=1;" parent="5" vertex="1">
                    <mxGeometry x="130" y="410" width="100" height="40" as="geometry"/>
                </mxCell>
                <mxCell id="22" value="Ophalen rating" style="rounded=0;whiteSpace=wrap;html=1;" parent="5" vertex="1">
                    <mxGeometry x="130" y="510" width="100" height="40" as="geometry"/>
                </mxCell>
                <mxCell id="23" value="Ophalen favoriet" style="rounded=0;whiteSpace=wrap;html=1;" parent="5" vertex="1">
                    <mxGeometry x="130" y="560" width="100" height="40" as="geometry"/>
                </mxCell>
                <mxCell id="15" value="Ophalen keuken" style="rounded=0;whiteSpace=wrap;html=1;" parent="5" vertex="1">
                    <mxGeometry x="130" y="110" width="100" height="40" as="geometry"/>
                </mxCell>
                <mxCell id="105" value="Bereken CalorieÃ«n" style="rounded=0;whiteSpace=wrap;html=1;" parent="5" vertex="1">
                    <mxGeometry x="130" y="280" width="100" height="40" as="geometry"/>
                </mxCell>
                <mxCell id="106" value="Bereken prijs" style="rounded=0;whiteSpace=wrap;html=1;" parent="5" vertex="1">
                    <mxGeometry x="130" y="335" width="100" height="40" as="geometry"/>
                </mxCell>
                <mxCell id="6" value="Model" style="swimlane;startSize=20;html=1;" parent="2" vertex="1">
                    <mxGeometry x="360" y="20" width="170" height="660" as="geometry"/>
                </mxCell>
                <mxCell id="12" value="Gerecht" style="swimlane;fontStyle=0;childLayout=stackLayout;horizontal=1;startSize=30;horizontalStack=0;resizeParent=1;resizeParentMax=0;resizeLast=0;collapsible=1;marginBottom=0;whiteSpace=wrap;html=1;fontSize=12;" parent="6" vertex="1">
                    <mxGeometry x="10" y="40" width="100" height="40" as="geometry"/>
                </mxCell>
                <mxCell id="52" value="Selecteer keuken Type" style="rounded=0;whiteSpace=wrap;html=1;" parent="6" vertex="1">
                    <mxGeometry x="10" y="110" width="100" height="40" as="geometry"/>
                </mxCell>
                <mxCell id="69" style="edgeStyle=orthogonalEdgeStyle;html=1;" parent="6" source="52" edge="1">
                    <mxGeometry relative="1" as="geometry">
                        <mxPoint x="-10" y="190" as="targetPoint"/>
                        <mxPoint x="10" y="190" as="sourcePoint"/>
                        <Array as="points">
                            <mxPoint x="60" y="190"/>
                        </Array>
                    </mxGeometry>
                </mxCell>
                <mxCell id="81" value="Selecteer ingredienten" style="rounded=0;whiteSpace=wrap;html=1;" parent="6" vertex="1">
                    <mxGeometry x="10" y="220" width="100" height="40" as="geometry"/>
                </mxCell>
                <mxCell id="82" style="edgeStyle=orthogonalEdgeStyle;html=1;" parent="6" source="81" edge="1">
                    <mxGeometry relative="1" as="geometry">
                        <mxPoint x="-10" y="240" as="targetPoint"/>
                    </mxGeometry>
                </mxCell>
                <mxCell id="83" value="Selecteer bereidingswijze" style="rounded=0;whiteSpace=wrap;html=1;" parent="6" vertex="1">
                    <mxGeometry x="10" y="410" width="100" height="40" as="geometry"/>
                </mxCell>
                <mxCell id="84" style="edgeStyle=orthogonalEdgeStyle;html=1;" parent="6" source="83" edge="1">
                    <mxGeometry relative="1" as="geometry">
                        <mxPoint x="-10" y="430" as="targetPoint"/>
                    </mxGeometry>
                </mxCell>
                <mxCell id="85" value="Selecteer comment" style="rounded=0;whiteSpace=wrap;html=1;" parent="6" vertex="1">
                    <mxGeometry x="10" y="460" width="100" height="40" as="geometry"/>
                </mxCell>
                <mxCell id="86" style="edgeStyle=orthogonalEdgeStyle;html=1;" parent="6" source="85" edge="1">
                    <mxGeometry relative="1" as="geometry">
                        <mxPoint x="-10" y="480" as="targetPoint"/>
                    </mxGeometry>
                </mxCell>
                <mxCell id="87" value="Selecteer rating" style="rounded=0;whiteSpace=wrap;html=1;" parent="6" vertex="1">
                    <mxGeometry x="10" y="510" width="100" height="40" as="geometry"/>
                </mxCell>
                <mxCell id="88" style="edgeStyle=orthogonalEdgeStyle;html=1;" parent="6" source="87" edge="1">
                    <mxGeometry relative="1" as="geometry">
                        <mxPoint x="-10" y="530" as="targetPoint"/>
                    </mxGeometry>
                </mxCell>
                <mxCell id="89" value="Selecteer favoriet" style="rounded=0;whiteSpace=wrap;html=1;" parent="6" vertex="1">
                    <mxGeometry x="10" y="560" width="100" height="40" as="geometry"/>
                </mxCell>
                <mxCell id="90" style="edgeStyle=orthogonalEdgeStyle;html=1;" parent="6" source="89" edge="1">
                    <mxGeometry relative="1" as="geometry">
                        <mxPoint x="-10" y="580" as="targetPoint"/>
                    </mxGeometry>
                </mxCell>
                <mxCell id="14" style="edgeStyle=none;html=1;" parent="2" source="12" target="11" edge="1">
                    <mxGeometry relative="1" as="geometry"/>
                </mxCell>
                <mxCell id="17" style="edgeStyle=none;html=1;" parent="2" source="11" target="4" edge="1">
                    <mxGeometry relative="1" as="geometry"/>
                </mxCell>
                <mxCell id="53" style="edgeStyle=orthogonalEdgeStyle;html=1;" parent="2" source="52" target="15" edge="1">
                    <mxGeometry relative="1" as="geometry"/>
                </mxCell>
                <mxCell id="28" value="Keuken Type" style="swimlane;childLayout=stackLayout;resizeParent=1;resizeParentMax=0;startSize=20;html=1;" parent="1" vertex="1">
                    <mxGeometry x="620" y="30" width="490" height="170" as="geometry"/>
                </mxCell>
                <mxCell id="29" value="Controller" style="swimlane;startSize=20;html=1;" parent="28" vertex="1">
                    <mxGeometry y="20" width="120" height="150" as="geometry"/>
                </mxCell>
                <mxCell id="31" value="Business Logic" style="swimlane;startSize=20;html=1;" parent="28" vertex="1">
                    <mxGeometry x="120" y="20" width="240" height="150" as="geometry"/>
                </mxCell>
                <mxCell id="35" value="Selecteer keuken Type" style="rounded=0;whiteSpace=wrap;html=1;" parent="31" vertex="1">
                    <mxGeometry x="9.999999999999545" y="90" width="100" height="40" as="geometry"/>
                </mxCell>
                <mxCell id="32" value="Model" style="swimlane;startSize=20;html=1;" parent="28" vertex="1">
                    <mxGeometry x="360" y="20" width="130" height="150" as="geometry"/>
                </mxCell>
                <mxCell id="38" value="Keuken Type" style="swimlane;fontStyle=0;childLayout=stackLayout;horizontal=1;startSize=30;horizontalStack=0;resizeParent=1;resizeParentMax=0;resizeLast=0;collapsible=1;marginBottom=0;whiteSpace=wrap;html=1;fontSize=12;" parent="32" vertex="1">
                    <mxGeometry x="9.999999999999545" y="40" width="100" height="40" as="geometry"/>
                </mxCell>
                <mxCell id="39" style="edgeStyle=orthogonalEdgeStyle;html=1;" parent="28" source="38" target="35" edge="1">
                    <mxGeometry relative="1" as="geometry"/>
                </mxCell>
                <mxCell id="72" value="Ingredient" style="swimlane;childLayout=stackLayout;resizeParent=1;resizeParentMax=0;startSize=20;html=1;" parent="1" vertex="1">
                    <mxGeometry x="620" y="230" width="490" height="180" as="geometry"/>
                </mxCell>
                <mxCell id="73" value="Controller" style="swimlane;startSize=20;html=1;" parent="72" vertex="1">
                    <mxGeometry y="20" width="120" height="160" as="geometry"/>
                </mxCell>
                <mxCell id="74" value="Business Logic" style="swimlane;startSize=20;html=1;" parent="72" vertex="1">
                    <mxGeometry x="120" y="20" width="240" height="160" as="geometry"/>
                </mxCell>
                <mxCell id="100" style="edgeStyle=orthogonalEdgeStyle;html=1;" parent="74" source="75" target="98" edge="1">
                    <mxGeometry relative="1" as="geometry"/>
                </mxCell>
                <mxCell id="75" value="Selecteer ingredienten" style="rounded=0;whiteSpace=wrap;html=1;" parent="74" vertex="1">
                    <mxGeometry x="9.999999999999545" y="90" width="100" height="40" as="geometry"/>
                </mxCell>
                <mxCell id="98" value="Ophalen product" style="rounded=0;whiteSpace=wrap;html=1;" parent="74" vertex="1">
                    <mxGeometry x="130" y="90" width="100" height="40" as="geometry"/>
                </mxCell>
                <mxCell id="77" value="Model" style="swimlane;startSize=20;html=1;" parent="72" vertex="1">
                    <mxGeometry x="360" y="20" width="130" height="160" as="geometry"/>
                </mxCell>
                <mxCell id="78" value="ingredient" style="swimlane;fontStyle=0;childLayout=stackLayout;horizontal=1;startSize=30;horizontalStack=0;resizeParent=1;resizeParentMax=0;resizeLast=0;collapsible=1;marginBottom=0;whiteSpace=wrap;html=1;fontSize=12;" parent="77" vertex="1">
                    <mxGeometry x="9.999999999999545" y="40" width="100" height="40" as="geometry"/>
                </mxCell>
                <mxCell id="120" value="Selecteer product" style="rounded=0;whiteSpace=wrap;html=1;" parent="77" vertex="1">
                    <mxGeometry x="10" y="90" width="100" height="40" as="geometry"/>
                </mxCell>
                <mxCell id="79" style="edgeStyle=orthogonalEdgeStyle;html=1;" parent="72" source="78" target="75" edge="1">
                    <mxGeometry relative="1" as="geometry"/>
                </mxCell>
                <mxCell id="119" style="edgeStyle=orthogonalEdgeStyle;html=1;" parent="72" target="98" edge="1">
                    <mxGeometry relative="1" as="geometry">
                        <mxPoint x="369.99999999999955" y="130" as="sourcePoint"/>
                    </mxGeometry>
                </mxCell>
                <mxCell id="109" value="Product" style="swimlane;childLayout=stackLayout;resizeParent=1;resizeParentMax=0;startSize=20;html=1;" parent="1" vertex="1">
                    <mxGeometry x="620" y="430" width="490" height="180" as="geometry"/>
                </mxCell>
                <mxCell id="110" value="Controller" style="swimlane;startSize=20;html=1;" parent="109" vertex="1">
                    <mxGeometry y="20" width="120" height="160" as="geometry"/>
                </mxCell>
                <mxCell id="111" value="Business Logic" style="swimlane;startSize=20;html=1;" parent="109" vertex="1">
                    <mxGeometry x="120" y="20" width="240" height="160" as="geometry"/>
                </mxCell>
                <mxCell id="113" value="Selecteer product" style="rounded=0;whiteSpace=wrap;html=1;" parent="111" vertex="1">
                    <mxGeometry x="9.999999999999545" y="90" width="100" height="40" as="geometry"/>
                </mxCell>
                <mxCell id="115" value="Model" style="swimlane;startSize=20;html=1;" parent="109" vertex="1">
                    <mxGeometry x="360" y="20" width="130" height="160" as="geometry"/>
                </mxCell>
                <mxCell id="116" value="Product" style="swimlane;fontStyle=0;childLayout=stackLayout;horizontal=1;startSize=30;horizontalStack=0;resizeParent=1;resizeParentMax=0;resizeLast=0;collapsible=1;marginBottom=0;whiteSpace=wrap;html=1;fontSize=12;" parent="115" vertex="1">
                    <mxGeometry x="9.999999999999545" y="40" width="100" height="40" as="geometry"/>
                </mxCell>
                <mxCell id="117" style="edgeStyle=orthogonalEdgeStyle;html=1;" parent="109" source="116" target="113" edge="1">
                    <mxGeometry relative="1" as="geometry"/>
                </mxCell>
                <mxCell id="121" value="Comment" style="swimlane;childLayout=stackLayout;resizeParent=1;resizeParentMax=0;startSize=20;html=1;" parent="1" vertex="1">
                    <mxGeometry x="620" y="630" width="490" height="180" as="geometry"/>
                </mxCell>
                <mxCell id="122" value="Controller" style="swimlane;startSize=20;html=1;" parent="121" vertex="1">
                    <mxGeometry y="20" width="120" height="160" as="geometry"/>
                </mxCell>
                <mxCell id="123" value="Business Logic" style="swimlane;startSize=20;html=1;" parent="121" vertex="1">
                    <mxGeometry x="120" y="20" width="240" height="160" as="geometry"/>
                </mxCell>
                <mxCell id="124" value="Selecteer comments" style="rounded=0;whiteSpace=wrap;html=1;" parent="123" vertex="1">
                    <mxGeometry x="10" y="90" width="100" height="40" as="geometry"/>
                </mxCell>
                <mxCell id="125" value="Model" style="swimlane;startSize=20;html=1;" parent="121" vertex="1">
                    <mxGeometry x="360" y="20" width="130" height="160" as="geometry"/>
                </mxCell>
                <mxCell id="126" value="Comment" style="swimlane;fontStyle=0;childLayout=stackLayout;horizontal=1;startSize=30;horizontalStack=0;resizeParent=1;resizeParentMax=0;resizeLast=0;collapsible=1;marginBottom=0;whiteSpace=wrap;html=1;fontSize=12;" parent="125" vertex="1">
                    <mxGeometry x="9.999999999999545" y="40" width="100" height="40" as="geometry"/>
                </mxCell>
                <mxCell id="127" style="edgeStyle=orthogonalEdgeStyle;html=1;" parent="121" source="126" target="124" edge="1">
                    <mxGeometry relative="1" as="geometry"/>
                </mxCell>
                <mxCell id="135" value="Favoriet" style="swimlane;childLayout=stackLayout;resizeParent=1;resizeParentMax=0;startSize=20;html=1;" parent="1" vertex="1">
                    <mxGeometry x="620" y="1030" width="490" height="180" as="geometry"/>
                </mxCell>
                <mxCell id="136" value="Controller" style="swimlane;startSize=20;html=1;" parent="135" vertex="1">
                    <mxGeometry y="20" width="120" height="160" as="geometry"/>
                </mxCell>
                <mxCell id="137" value="Business Logic" style="swimlane;startSize=20;html=1;" parent="135" vertex="1">
                    <mxGeometry x="120" y="20" width="240" height="160" as="geometry"/>
                </mxCell>
                <mxCell id="138" value="Selecteer favoriet" style="rounded=0;whiteSpace=wrap;html=1;" parent="137" vertex="1">
                    <mxGeometry x="10" y="90" width="100" height="40" as="geometry"/>
                </mxCell>
                <mxCell id="139" value="Model" style="swimlane;startSize=20;html=1;" parent="135" vertex="1">
                    <mxGeometry x="360" y="20" width="130" height="160" as="geometry"/>
                </mxCell>
                <mxCell id="140" value="Favoriet" style="swimlane;fontStyle=0;childLayout=stackLayout;horizontal=1;startSize=30;horizontalStack=0;resizeParent=1;resizeParentMax=0;resizeLast=0;collapsible=1;marginBottom=0;whiteSpace=wrap;html=1;fontSize=12;" parent="139" vertex="1">
                    <mxGeometry x="9.999999999999545" y="40" width="100" height="40" as="geometry"/>
                </mxCell>
                <mxCell id="141" style="edgeStyle=orthogonalEdgeStyle;html=1;" parent="135" source="140" target="138" edge="1">
                    <mxGeometry relative="1" as="geometry"/>
                </mxCell>
                <mxCell id="142" value="Bereidingswijze" style="swimlane;childLayout=stackLayout;resizeParent=1;resizeParentMax=0;startSize=20;html=1;" parent="1" vertex="1">
                    <mxGeometry x="620" y="830" width="490" height="180" as="geometry"/>
                </mxCell>
                <mxCell id="143" value="Controller" style="swimlane;startSize=20;html=1;" parent="142" vertex="1">
                    <mxGeometry y="20" width="120" height="160" as="geometry"/>
                </mxCell>
                <mxCell id="144" value="Business Logic" style="swimlane;startSize=20;html=1;" parent="142" vertex="1">
                    <mxGeometry x="120" y="20" width="240" height="160" as="geometry"/>
                </mxCell>
                <mxCell id="145" value="Selecteer bereidingswijze" style="rounded=0;whiteSpace=wrap;html=1;" parent="144" vertex="1">
                    <mxGeometry x="10" y="90" width="100" height="40" as="geometry"/>
                </mxCell>
                <mxCell id="146" value="Model" style="swimlane;startSize=20;html=1;" parent="142" vertex="1">
                    <mxGeometry x="360" y="20" width="130" height="160" as="geometry"/>
                </mxCell>
                <mxCell id="147" value="Bereidingswijze" style="swimlane;fontStyle=0;childLayout=stackLayout;horizontal=1;startSize=30;horizontalStack=0;resizeParent=1;resizeParentMax=0;resizeLast=0;collapsible=1;marginBottom=0;whiteSpace=wrap;html=1;fontSize=12;" parent="146" vertex="1">
                    <mxGeometry x="9.999999999999545" y="40" width="100" height="40" as="geometry"/>
                </mxCell>
                <mxCell id="148" style="edgeStyle=orthogonalEdgeStyle;html=1;" parent="142" source="147" target="145" edge="1">
                    <mxGeometry relative="1" as="geometry"/>
                </mxCell>
            </root>
        </mxGraphModel>
    </diagram>
</mxfile>